Patient4_TMGait_0pt5_02_right_05_EMG.mot
version=1
nRows=33
nColumns=33
inDegrees=no
endheader
time	1LAddLong	2LGlutMax	3LGlutMed	4LIliopsoas	5LSemiMemb	6LBicFemLong	7LRecFem	8LVastMed	9LVastLat	10LGasMed	11LTibAnt	12lTibPost	13LPeroneusLong	14LSol	15LExtDigLong	16LFlexDigLong	17RAddLong	18RGlutMax	19RGlutMed	20RIliopsoas	21RSemiMemb	22RBicFemLong	23RRecFem	24RVastMed	25RVastLat	26RGasMed	27RTibAnt	28RTibPost	29RPeroneusLong	30RSol	31RExtDigLong	32RFlexDigLong
6.42	0.005493	-0.10803	-0.012817	0.018616	-0.090179	-0.005341	-0.070038	0.010681	0.20416	-0.011292	-0.019226	0.004883	0.091553	-0.04364	-0.12863	-0.002289	-0.009613	-0.16937	0.021057	-0.10666	0.064697	-0.048676	0.052643	-0.15305	-0.025024	-0.015259	0.26352	-0.007782	-0.21027	-0.029602	-0.005493	-0.009766
6.421	0.025482	-0.1474	0.090485	-0.012665	-0.017395	0.023499	-0.079803	-0.002594	0.21912	0.055084	-0.014801	0.007324	0.098267	-0.061188	-0.097351	-0.005798	0.032654	-0.18448	-0.066986	-0.086517	0.059814	-0.037384	0.054779	-0.11261	-0.024261	-0.020294	0.21408	-0.005188	-0.15823	-0.056	-0.003357	-0.000153
6.422	0.026093	-0.10346	0.06485	0.002136	0.074158	0.043945	0.074158	-0.002594	-0.066833	0.10986	0.00061	0.00061	0.070038	-0.046387	0.008087	-0.011597	0.033569	-0.20706	-0.091248	-0.11795	0.045929	-0.047302	0.006866	-0.10757	-0.02121	-0.02121	0.31128	-0.005188	0.009003	-0.03006	-0.006714	-0.00412
6.423	0.013733	-0.088348	0.057983	-0.000763	0.085907	0.017853	0.112	-0.002899	-0.35431	0.093384	0.005341	0.003204	0.066833	-0.06134	-0.007935	0.008545	0.011749	-0.19989	-0.07019	-0.11032	0.046692	-0.03479	0.082092	-0.090637	-0.028992	-0.01236	0.21362	-0.007172	0.11627	0.088196	-0.007019	-0.008545
6.424	-0.006256	-0.043488	0.019531	0.006409	0.037231	0.010071	0.062714	0.001373	-0.057831	0.081329	0.007172	0.010834	0.029449	-0.039368	0.020447	0.002747	0.000305	-0.215	0.058594	-0.12848	0.041199	-0.037689	0.085297	-0.084839	-0.039673	-0.014191	0.015564	-0.007172	0.12146	0.15152	-0.00473	-0.005493
6.425	-0.005035	-0.012817	-0.004883	0.001526	-0.049744	0.0354	0.02533	0.002747	0.031738	0.035706	0.003052	0.010681	0.058899	-0.038147	0.030823	0.001221	0.002594	-0.16647	0.089417	-0.039215	0.045776	-0.04303	0.086365	-0.05722	-0.01709	-0.015259	-0.075073	-0.007935	0.10132	0.12436	-0.006409	-0.007019
6.426	-0.000916	-0.010223	-0.024414	0.008545	-0.069885	0.072784	0.059204	0.011902	-0.098267	-0.025787	0.013123	0.003662	0.048523	-0.041504	-0.005188	0.008545	-0.00885	-0.13351	0.10788	0.005493	0.055847	-0.023651	0.057678	-0.046082	-0.02533	-0.007935	-0.13229	-0.010529	0.020905	0.075073	-0.009766	-0.007935
6.427	-0.013123	0.013275	0.022583	0.005341	-0.079346	0.085144	0.059662	0.002899	-0.24445	0.00412	0.015564	0.006561	0.035095	-0.020142	0.021515	0.079803	0.001984	-0.099792	0.057983	0.061035	0.054474	-0.033722	0.044708	-0.049438	-0.019684	-0.012054	-0.092773	-0.003357	-0.018311	0.067291	-0.011749	-0.014038
6.428	-0.000458	-0.000153	0.042877	0.009766	-0.093231	-0.039978	0.052948	-0.005646	-0.17258	-0.005798	0.00824	0.002747	0.036774	-0.048828	0.023193	0.048981	0.066833	-0.19592	-0.012665	0.088959	0.047913	-0.027771	0.037994	-0.096741	-0.031586	-0.013275	-0.001221	-0.005341	-0.025177	0.02594	-0.005035	-0.010986
6.429	-0.002747	-0.01297	0.02243	0.002441	-0.029755	-0.14908	0.020447	0.008087	-0.08606	-0.006409	0.002899	0.007477	0.054779	-0.075073	0.034027	-0.40817	0.10666	-0.17899	-0.080566	0.046539	0.039673	-0.026093	0.020142	-0.075989	-0.025787	-0.012665	0.16419	-0.010071	0.063171	0.01358	-0.012817	-0.008698
6.43	0.018921	-0.039978	0.023804	0.001373	0.041046	-0.048523	0.019531	0.002594	-0.054169	-0.027466	0.01358	0.00473	0.031281	-0.10178	0.02182	0.083618	0.10483	-0.17334	-0.095673	0.016937	0.041504	-0.020752	0.02182	-0.055237	-0.025177	-0.014954	0.27466	-0.005951	0.13931	-0.007935	-0.010071	-0.009918
6.431	0.020447	-0.044098	-0.011902	-0.000305	0.083771	-0.077515	0.018158	-0.001984	-0.039673	-0.001984	0.015869	0.007629	-0.006409	-0.11337	0.011902	0.13214	0.080566	-0.18906	-0.1535	0.095215	0.062561	-0.016479	0.050812	-0.055847	-0.042725	-0.011597	0.27298	-0.00824	0.11688	-0.009155	-0.010071	-0.0177
6.432	0.018768	-0.079193	-0.080414	0.01236	0.08606	-0.15701	0.015411	-0.001221	-0.022583	-0.003052	0.022125	0.005035	-0.037842	-0.031738	0.006104	0.045624	0.025635	-0.22476	-0.16357	0.2536	0.057831	-0.015106	0.044403	-0.062561	-0.046692	-0.012512	0.23987	-0.002747	-0.10635	-0.035553	-0.007629	-0.00946
6.433	0.009003	-0.085449	-0.13596	0.004425	0.066833	-0.15686	0.026703	0.002136	-0.013275	-0.012817	0.10071	-0.00473	-0.058594	-0.010376	-0.001984	0.006256	-0.018616	-0.22156	-0.19089	0.30197	0.054626	-0.01709	0.025177	-0.037079	-0.027618	-0.005798	0.031281	-0.008087	0.15167	-0.051575	-0.013733	-0.00351
6.434	0.016022	-0.044556	-0.14725	0.014648	0.050354	-0.048981	0.021515	0.000458	0.002747	-0.023804	0.13855	0.006866	-0.069427	0.000305	0.029907	0.010071	-0.077057	-0.18036	-0.12466	0.2536	0.039825	-0.006714	0.035706	-0.045929	-0.026093	-0.011749	-0.18753	-0.006409	0.43854	0.014191	-0.009613	-0.010681
6.435	0.014648	-0.051422	-0.058289	0.00885	0.013275	-0.00061	0.007324	-0.001526	0.009766	-0.008087	0.17319	0.002136	-0.079803	0.023041	0.00061	-0.000763	-0.11688	-0.20554	-0.091095	0.21011	0.054169	0.016632	0.028992	-0.063324	-0.026093	-0.003357	-0.18646	-0.00351	0.13321	-0.015717	-0.011749	-0.003052
6.436	0.020905	-0.074615	0.011139	0.01358	-0.001526	-0.033875	0.005188	0.000153	0.009918	0.044403	0.045471	0.002289	-0.004425	0.050507	0.009308	-0.003204	-0.15701	-0.20248	-0.14816	0.11353	0.063477	0.021667	0.053558	-0.093384	-0.033417	-0.001831	-0.16647	-0.005341	-0.077972	-0.056458	-0.015564	-0.005493
6.437	0.015564	-0.060883	0.028076	0.001984	-0.031738	-0.089417	0.018311	0.023346	0.025177	0.12238	-0.23285	0.00946	0.078735	0.03006	0.096741	0.005341	-0.13382	-0.16922	-0.11948	-0.068817	0.071259	0.040436	0.084839	-0.067291	-0.011139	-0.003815	-0.097351	0.00473	-0.032349	-0.062256	-0.013885	-0.006561
6.438	0.023041	-0.000763	-0.006409	0.003357	-0.052643	-0.058594	0.006714	0.018768	0.019836	0.25345	-0.11215	0.00351	0.058136	0.007019	0.087738	0.011444	-0.10208	-0.19653	-0.08667	-0.16861	0.080414	0.029755	0.097046	-0.06546	-0.009613	-0.012207	0.11658	-0.003662	-0.17166	0.052338	-0.013275	0.005341
6.439	0.00351	-0.007019	-0.079041	0.005798	-0.001678	0.000305	0.021667	0.008545	0.013275	0.27771	-0.051727	-0.001221	0.050812	-0.020142	0.032806	0.014801	-0.026855	-0.17624	-0.14374	-0.14099	0.071869	0.020294	0.06485	-0.077972	-0.018311	-0.019226	0.36194	-0.003357	-0.25391	0.060425	-0.008392	0.000305
6.44	0.005798	0.033569	-0.1059	0.014038	0.031281	0.069733	0.028687	0.003052	0.032349	0.15045	-0.050201	0.000458	0.037231	-0.023499	-0.021057	0.013885	0.050354	-0.14572	-0.21454	-0.072784	0.057068	0.007019	0.057678	-0.10208	-0.024872	-0.018158	0.45212	-0.001984	-0.34378	-0.044403	-0.011444	-0.00473
6.441	0.009918	0.023499	-0.071716	0.005035	0.026703	0.11581	0.026855	0.000916	0.033722	-0.094604	-0.035706	0.00351	0.058136	0.009918	-0.038452	0.020905	0.082703	-0.11368	-0.032654	-0.067596	0.048676	0.018463	0.071716	-0.083466	-0.019073	-0.017395	0.44968	0.006409	-0.30502	-0.046234	-0.017853	-0.009155
6.442	0.00946	-0.044403	-0.065918	0.001831	-0.021973	0.11185	0.042877	0.002441	0.022278	-0.098114	-0.028381	0.003357	0.075684	-0.007324	-0.10696	0.022278	0.057831	-0.092316	0.063629	-0.11963	0.039673	0.016632	0.061035	-0.12543	-0.027008	-0.019531	0.027771	-0.00061	-0.16037	0.002899	-0.01358	0.000305
6.443	0.01236	-0.065765	-0.069427	-0.002289	-0.016785	0.048218	0.017242	0.001068	0.012817	-0.12589	0.026855	-0.000305	0.041046	-0.049133	-0.12634	-0.031738	0.026703	-0.10147	-0.10574	-0.20157	0.029602	0.008698	0.032806	-0.089417	-0.007629	-0.010681	-0.53558	-0.001373	-0.14297	-0.023346	-0.015869	0.006409
6.444	0.006866	-0.043945	-0.065765	0.002289	0.023193	-0.049591	-0.02655	0.003967	0.015411	-0.15274	0.009308	0.002136	0.02655	-0.12222	-0.078735	-0.018921	-0.026245	-0.096283	-0.14648	-0.2536	0.018463	0.012665	0.083313	-0.054169	-0.016174	-0.00946	-0.16052	-0.001678	-0.19165	-0.056763	-0.014191	-0.001526
6.445	0.005341	-0.019379	-0.001831	0.005951	0.039825	-0.065613	-0.031128	0.013123	0.023804	-0.085449	-0.018005	0.011444	0.032959	-0.13657	-0.037384	-0.004883	-0.048981	-0.16785	-0.074921	-0.18509	0.020142	0.019226	0.099945	-0.020142	0.001068	-0.003815	0.15701	0.006561	-0.21652	-0.099335	-0.015259	-0.006256
6.446	0.008087	-0.008545	0.052948	-0.008392	0.044098	-0.012512	-0.010529	-0.015259	0.02243	0.021057	0.009918	0.00412	0.028839	-0.11231	-0.016022	-0.001678	-0.078125	-0.14099	-0.058289	-0.032196	0.027924	0.03006	0.041046	-0.036316	-0.00061	-0.011749	0.062561	-0.003357	-0.026855	-0.10544	-0.014038	-0.00824
6.447	0.001831	0	0.037689	0.005951	0.024109	0.031281	-0.019836	-0.001373	0.016479	0.10269	0.020142	0.00824	0.022125	-0.075378	0.003967	0.036163	-0.055542	-0.11505	-0.068207	0.12924	0.025787	0.020752	0.046539	0.017242	0.011902	-0.007782	-0.077515	-0.002594	-0.08606	-0.084686	-0.017548	-0.009918
6.448	0.00473	0.003967	0.018616	-0.009918	0.018616	0.060272	-0.013733	0.004883	0.0177	0.088806	0.023804	0.010681	-0.008087	-0.037384	-0.006104	-0.021515	-0.016785	-0.15686	-0.080566	0.2153	0.043335	0.018768	0.089264	0.008392	0.014648	-0.01297	-0.19211	-0.003967	-0.020752	-0.023041	-0.013733	-0.002136
6.449	0.006714	0.005035	0.000916	0.01236	0.011292	0.037079	-0.009766	0.001526	0.010834	-0.081635	0.031738	0.002594	-0.027008	-0.011597	0.012054	-0.076904	0.027313	-0.14038	-0.1535	0.15182	0.048065	0.028839	0.0914	0.030365	0.008087	-0.012512	-0.1535	-0.006714	0.2803	0.00885	-0.014496	-0.005798
6.45	0.005188	-0.020294	-0.00061	0.006714	0.009155	0.056458	0.006104	0.00473	-0.004578	-0.14236	0.021362	-0.00412	0.021362	-0.011902	0.00946	-0.038757	0.033417	-0.16754	-0.12116	0.12054	0.033569	0.003357	0.14145	0.065918	-0.007172	-0.016327	-0.112	-0.006104	0.024719	0.044403	-0.012054	-0.006104
6.451	0.003815	-0.006561	0.087433	0.011292	-0.010986	0.068207	0.000305	0.008545	0.011292	-0.12955	0.020447	0.016022	0.051575	-0.00351	-0.001221	-1.0756	0.037384	-0.11002	0.020905	0.072174	0.034027	-0.001678	0.14923	-0.027771	-0.009766	-0.01358	-0.12024	-0.001678	-0.29068	0.02121	-0.017395	-0.002747
6.452	0.00946	-0.002136	-0.00473	-0.00885	-0.024109	0.089417	-0.006561	0.005493	0.033112	-0.18646	0.023651	0.006409	0.018768	-0.00412	-0.010223	-0.041809	0.1506	-0.11444	0.021515	0.077209	0.031738	-0.001221	0.13947	-0.031891	-0.015717	-0.018921	-0.083008	-0.002899	-0.18524	0.006104	-0.020142	-0.002747
